<?xml version="1.0" encoding="UTF-8"?>
<!DOCTYPE svg PUBLIC "-//W3C//DTD SVG 1.1//EN" "http://www.w3.org/Graphics/SVG/1.1/DTD/svg11.dtd">
<!-- Creator: CorelDRAW -->
<svg xmlns="http://www.w3.org/2000/svg" xml:space="preserve" width="150mm" height="150mm" style="shape-rendering:geometricPrecision; text-rendering:geometricPrecision; image-rendering:optimizeQuality; fill-rule:evenodd; clip-rule:evenodd"
viewBox="0 0 150 150"
 xmlns:xlink="http://www.w3.org/1999/xlink">
 <defs>
  <style type="text/css">
   <![CDATA[
    .fil0 {fill:#42C553}
    .fil1 {fill:white}
   ]]>
  </style>
 </defs>
 <g id="Capa_x0020_1">
  <metadata id="CorelCorpID_0Corel-Layer"/>
  <path class="fil0" d="M72.3301 2.583c-15.7755,0.8175 -28.262,5.3715 -40.2358,13.9934 -2.6822,1.9314 -4.9341,3.9706 -7.3262,6.1784 -6.8905,6.3597 -12.9758,15.5507 -16.6593,24.2892 -9.9219,23.5384 -6.4277,50.6426 8.4846,70.9137 13.8411,18.8149 36.6414,30.3931 61.1979,29.4934 38.9718,-1.428 71.1331,-34.1282 69.66,-75.2187 -0.5409,-15.0867 -5.7557,-28.9988 -14.0882,-40.267 -1.42,-1.9202 -2.6779,-3.2615 -4.0519,-4.9554 -1.4001,-1.7259 -5.0261,-5.2605 -6.8627,-6.8463 -0.7754,-0.6695 -1.6223,-1.3698 -2.4756,-2.0267 -5.3322,-4.1056 -10.4997,-7.404 -17.1107,-10.0785 -9.0338,-3.6547 -19.6008,-6.0419 -30.5321,-5.4755z"/>
  <path class="fil1" d="M73.6792 78.9123c-1.0233,3.4226 -2.1237,4.6132 -3.1292,9.6252 -2.0964,10.4495 -0.0255,22.2708 8.5423,28.1632 12.0655,8.2981 29.1024,0.3563 36.7231,-6.7452 5.0693,-4.7239 16.3073,-17.6056 12.0279,-24.4872 -0.6082,-0.978 -2.2091,-2.5111 -4.0017,-2.2362 -3.5711,0.5477 -11.9473,18.8286 -23.2792,21.3823 -4.6153,1.0401 -6.4493,-0.4471 -10.0619,-2.3147 0.6968,-0.5217 2.5827,-0.9296 3.5681,-1.2941 8.0141,-2.9634 13.9849,-8.3957 17.5904,-16.6598 4.2608,-9.7658 4.4157,-23.3554 -7.7923,-26.4016 -3.0186,-0.7532 -5.7708,-0.536 -8.7208,0.1464 -4.1559,0.9614 -4.234,1.6429 -6.9567,2.8234 -1.0739,0.4655 -26.1,2.6056 -31.2751,3.066 -1.9914,0.1771 -2.8813,0.1578 -2.9378,-1.9574 -0.08,-2.9885 0.7627,-14.9471 0.9834,-18.8456 5.425,-0.8205 11.0307,-1.2652 16.4687,-1.9124 5.615,-0.6682 11.0906,-1.2815 16.6932,-1.9015 8.5972,-0.9515 7.101,0.3611 7.711,-10.7931 0.0668,-1.2228 0.2665,-3.3583 0.1571,-4.4976 -0.1676,-1.7448 -1.2324,-1.844 -2.9536,-1.6772l-42.2525 4.1535c-2.787,0.2776 -5.6778,0.5086 -8.3641,0.8174 -3.0184,0.3468 -4.6753,1.3362 -5.3073,4.0807 -0.5163,2.2423 -0.3983,6.2232 -0.5556,8.7061 -0.9227,14.5614 -1.3846,29.8489 -2.1279,44.4663 -0.302,5.9404 -0.554,11.8838 -0.8365,17.8377 -0.1355,2.8538 -0.2832,5.8242 -0.4325,8.7025 -0.1827,3.5215 -0.0923,5.8066 3.8047,5.3824 2.715,-0.2956 5.5732,-0.5164 8.313,-0.7653 7.5255,-0.6834 6.1996,-0.4989 6.7248,-11.9057l0.7317 -17.8743c0.1852,-5.146 -0.5108,-4.5365 4.3721,-5.1451 2.7175,-0.3388 5.4572,-0.6619 8.1648,-0.9881 2.5833,-0.3112 5.8278,-0.9094 8.4084,-0.951z"/>
  <path class="fil0" d="M88.1472 94.0673c4.1263,-0.6398 17.733,-13.703 11.7363,-22.6771 -0.6877,-1.0292 -1.1078,-1.9509 -2.9732,-1.5675 -5.9338,1.2198 -8.5948,19.7525 -8.7631,24.2446z"/>
 </g>
</svg>
