<?xml version="1.0" encoding="UTF-8"?>
<!DOCTYPE svg PUBLIC "-//W3C//DTD SVG 1.1//EN" "http://www.w3.org/Graphics/SVG/1.1/DTD/svg11.dtd">
<!-- Creator: CorelDRAW -->
<svg xmlns="http://www.w3.org/2000/svg" xml:space="preserve" width="150mm" height="150mm" style="shape-rendering:geometricPrecision; text-rendering:geometricPrecision; image-rendering:optimizeQuality; fill-rule:evenodd; clip-rule:evenodd"
viewBox="0 0 150 150"
 xmlns:xlink="http://www.w3.org/1999/xlink">
 <defs>
  <style type="text/css">
   <![CDATA[
    .fil0 {fill:#211E20}
    .fil2 {fill:#565656}
    .fil1 {fill:#FEFEFE}
   ]]>
  </style>
 </defs>
 <g id="Capa_x0020_1">
  <metadata id="CorelCorpID_0Corel-Layer"/>
  <g id="_262673976">
   <polygon id="_262708920" class="fil0" points="-0,150 150,150 150,0 -0,0 "/>
   <path id="_262709112" class="fil1" d="M70.4784 10.2331c-5.9674,0.6169 -14.2049,2.0635 -19.4627,4.5869 -0.8752,0.42 -1.9316,0.8183 -2.7999,1.2522 -0.9525,0.4759 -1.8403,0.9096 -2.7226,1.3534 -9.3276,4.6918 -19.5845,14.3439 -24.7342,23.3894 -1.0003,1.757 -1.8788,3.2805 -2.8436,5.1741 -0.4168,0.8182 -0.9177,1.9086 -1.2877,2.7563 -0.9803,2.2458 -2.5576,6.6781 -3.1403,8.9302 -1.6804,6.4937 -2.8151,15.0689 -2.1449,21.6388 0.9544,9.3566 2.6179,17.1387 6.8866,25.2824 3.0157,5.7531 5.6069,9.6507 9.7493,14.2487 1.2039,1.3364 2.6084,2.8996 4.0201,4.1155 1.424,1.2266 2.8825,2.5135 4.3158,3.6782 3.9598,3.2182 10.4491,6.9697 15.314,8.8198 3.2622,1.2406 5.7835,2.0364 9.1788,2.8641 0.979,0.2386 2.4239,0.5925 3.3458,0.7023 7.6015,0.905 7.3379,1.0178 15.2262,0.746 7.33,-0.2526 15.8178,-2.7011 22.3215,-5.8118 8.5965,-4.1119 14.4239,-8.6933 20.6802,-15.5146 2.1258,-2.3177 5.2841,-6.4799 6.7993,-9.216 1.6645,-3.0055 2.7192,-4.6659 4.1364,-7.9249 4.0189,-9.2421 6.1264,-20.5559 5.3302,-30.8021 -1.6587,-21.3452 -12.4966,-39.1897 -29.7395,-50.4963 -5.7866,-3.7944 -10.1499,-5.4137 -16.59,-7.5271 -1.0523,-0.3453 -5.3848,-1.3433 -6.5878,-1.5122 -4.6545,-0.6537 -10.1521,-1.2604 -15.251,-0.7333z"/>
   <path id="_262708992" class="fil0" d="M62.099 89.7773l9.231 -0.0324c0.1183,-1.6152 0.0569,-8.7376 0.0881,-11.0758 5.495,-0.2759 9.0827,0.6371 12.8405,-2.1486 2.7199,-2.0164 4.1664,-6.9723 2.5723,-11.3231 -1.4011,-3.8241 -4.8809,-5.2572 -9.7352,-5.2479l-14.9966 0.0215 -0.0001 29.8063z"/>
   <path id="_262673088" class="fil0" d="M92.4533 89.7773l9.1394 -0.0017c0.157,-1.0073 0.0392,-6.5752 0.0392,-8.3615 0,-1.1314 -0.0944,-1.6712 0.127,-2.651 0.5072,-0.3085 2.7282,-0.1087 3.5332,-0.1081 3.4859,0.0024 6.4444,-0.087 9.235,-2.0948 2.9869,-2.149 4.0706,-6.9773 2.6822,-11.2435 -1.2283,-3.7742 -4.9817,-5.3838 -9.6307,-5.3677l-15.125 0.022 -0.0003 29.8063z"/>
   <path id="_262672776" class="fil0" d="M51.078 77.9314c1.3645,0.1081 3.6673,-1.7482 4.6405,-3.038 1.1962,-1.5856 1.6715,-3.8827 1.6086,-6.3126 -0.0594,-2.2945 -0.7361,-4.3246 -2.0121,-5.7765 -0.9194,-1.0461 -3.4029,-2.7801 -5.2794,-2.5426 -0.7313,0.1521 -1.3205,-0.1391 -2.0228,-0.241l-15.9898 -0.0709 -0.0156 29.8464 9.1435 -0.0482 0.0464 -11.0662c0.2579,-0.2371 0.2326,-0.1784 1.0951,-0.1713 1.7661,0.0146 4.8838,0.0589 6.4844,-0.1277 0.6444,-0.0751 1.9547,-0.4577 2.3012,-0.4514z"/>
   <path id="_262672992" class="fil1" d="M101.673 72.5789c2.7788,0.0359 5.3635,0.439 6.5621,-1.8081 0.9058,-1.698 0.0269,-3.5918 -1.2894,-4.3323 -1.1128,-0.6259 -2.773,-0.4809 -4.0699,-0.4988 -0.6755,-0.0093 -1.1377,-0.19 -1.2469,0.3619 -0.0643,0.3248 -0.0234,5.8844 0.0441,6.2773z"/>
   <path id="_262672848" class="fil1" d="M71.4147 72.5931c3.2194,0.1837 6.8088,0.1329 6.8215,-3.2445 0.0137,-3.6324 -3.6787,-3.6011 -6.8255,-3.3892 -0.1391,0.6642 -0.1503,6.0335 0.004,6.6337z"/>
   <path id="_262672752" class="fil1" d="M41.2334 72.5524c3.2936,0.2958 6.9649,0.1216 6.8944,-3.3348 -0.0714,-3.5035 -3.624,-3.4238 -6.8817,-3.2611l-0.0127 6.5959z"/>
   <path id="_262672872" class="fil2" d="M51.078 77.9314c-0.3465,-0.0063 -1.6568,0.3763 -2.3012,0.4514 -1.6006,0.1866 -4.7183,0.1423 -6.4844,0.1277 -0.8625,-0.0071 -0.8372,-0.0658 -1.0951,0.1713l-0.0464 11.0662 -9.1435 0.0482 0.0156 -29.8464 15.9898 0.0709c0.7023,0.1019 1.2915,0.3931 2.0228,0.241 -0.4214,-0.3246 -1.2584,-0.3227 -2.0254,-0.3493 -4.221,-0.1462 -11.5769,-0.0022 -16.0628,0.0232l0.0391 29.88 9.2575 -0.0549 0.1241 -11.0341c1.4578,-0.1131 8.0454,0.1949 9.4771,-0.5986 0.2443,-0.1354 0.0886,-0.0434 0.2328,-0.1966z"/>
  </g>
 </g>
</svg>
