<?xml version="1.0" encoding="UTF-8" standalone="no"?>
<svg
   version="1.1"
   id="svg10"
   width="353"
   height="443"
   viewBox="0 0 353 443"
   sodipodi:docname="Renovación_Popular_logo.svg"
   inkscape:version="1.1 (c68e22c387, 2021-05-23)"
   xmlns:inkscape="http://www.inkscape.org/namespaces/inkscape"
   xmlns:sodipodi="http://sodipodi.sourceforge.net/DTD/sodipodi-0.dtd"
   xmlns="http://www.w3.org/2000/svg"
   xmlns:svg="http://www.w3.org/2000/svg"
   xmlns:rdf="http://www.w3.org/1999/02/22-rdf-syntax-ns#"
   xmlns:cc="http://creativecommons.org/ns#"
   xmlns:dc="http://purl.org/dc/elements/1.1/">
  <metadata
     id="metadata16">
    <rdf:RDF>
      <cc:Work
         rdf:about="">
        <dc:format>image/svg+xml</dc:format>
        <dc:type
           rdf:resource="http://purl.org/dc/dcmitype/StillImage" />
        <dc:title />
      </cc:Work>
    </rdf:RDF>
  </metadata>
  <defs
     id="defs14" />
  <sodipodi:namedview
     pagecolor="#ffffff"
     bordercolor="#666666"
     borderopacity="1"
     objecttolerance="10"
     gridtolerance="10"
     guidetolerance="10"
     inkscape:pageopacity="0"
     inkscape:pageshadow="2"
     inkscape:window-width="1280"
     inkscape:window-height="657"
     id="namedview12"
     showgrid="false"
     inkscape:zoom="0.66583926"
     inkscape:cx="295.11627"
     inkscape:cy="202.0007"
     inkscape:window-x="-8"
     inkscape:window-y="-8"
     inkscape:window-maximized="1"
     inkscape:current-layer="g18"
     inkscape:document-rotation="0"
     inkscape:object-nodes="false"
     inkscape:snap-nodes="false"
     inkscape:pagecheckerboard="0">
    <inkscape:grid
       type="xygrid"
       id="grid13" />
  </sodipodi:namedview>
  <g
     inkscape:groupmode="layer"
     inkscape:label="Image"
     id="g18">
    <g
       id="g33039">
      <g
         id="g33014">
        <path
           id="path22"
           style="fill:#049AD7;"
           d="M 1.1230469 0.98242188 L 1.1230469 352.10742 L 351.9668 352.10742 L 351.9668 0.98242188 L 1.1230469 0.98242188 z M 15.167969 15.589844 L 336.79688 15.589844 L 336.79688 336.79688 L 15.167969 336.79688 L 15.167969 15.589844 z " />
        <path
           id="path32"
           style="fill:#049AD7;"
           d="M 205.80664 86.613281 C 170.34661 86.601873 100 86.773437 100 86.773438 L 97.742188 88.871094 L 97.902344 263.54883 L 101.45117 265.80664 L 150.32227 265.80664 L 153.22656 263.54883 L 153.38672 206.45117 L 176.93555 206.29102 L 212.90234 263.38672 L 215.32227 265.64453 L 271.29102 265.64453 L 274.19336 263.06445 L 274.19336 261.45117 L 232.58008 196.12891 C 232.58008 196.12891 232.90793 195.29387 233.22656 195 C 234.62328 193.71182 236.72465 193.50082 238.38672 192.58008 C 241.07398 191.09141 243.67998 189.43486 246.12891 187.58008 C 249.04391 185.3723 251.93692 183.06492 254.35547 180.32227 C 257.45239 176.81035 260.02476 172.82456 262.25781 168.70898 C 264.31494 164.91762 266.01674 160.90454 267.25781 156.77344 C 267.84031 154.83451 268.22262 152.82451 268.38672 150.80664 C 268.73982 146.46481 268.70929 142.05036 268.06445 137.74219 C 267.50254 133.98806 266.37816 130.31037 265 126.77344 C 263.75167 123.56972 262.13468 120.50195 260.32227 117.58008 C 258.80325 115.1312 257.08035 112.79506 255.16211 110.64453 C 252.75686 107.94801 250.05779 105.51053 247.25781 103.22656 C 244.65708 101.10512 241.89956 99.165852 239.0332 97.419922 C 236.44555 95.843755 233.72085 94.489672 230.9668 93.226562 C 228.86147 92.26098 226.69728 91.422429 224.51562 90.644531 C 222.65772 89.982076 220.77791 89.375745 218.87109 88.871094 C 216.90362 88.350389 214.90674 87.932888 212.90234 87.580078 C 210.55101 87.166201 207.38878 86.61379 205.80664 86.613281 z M 171.5293 123.76172 C 176.62813 123.74639 181.36228 123.79604 183.45898 123.99219 C 185.19258 124.15437 186.93297 124.27691 188.6543 124.53906 C 190.03254 124.74896 191.41586 124.97468 192.75586 125.35938 C 194.48857 125.85681 196.22641 126.41668 197.8125 127.27344 C 199.44848 128.15714 200.94781 129.30454 202.32422 130.55469 C 203.90134 131.98714 205.35302 133.58393 206.5625 135.33789 C 207.78901 137.11655 208.76811 139.07398 209.57031 141.08008 C 209.81666 141.69614 210.03079 142.33629 210.11719 142.99414 C 210.46125 145.61502 210.32605 148.30315 209.98047 150.92383 C 209.90678 151.48265 209.75956 152.03352 209.57031 152.56445 C 208.99539 154.17736 208.28843 155.75772 207.38281 157.21094 C 206.45689 158.69673 205.35867 160.09406 204.10156 161.3125 C 202.95632 162.42251 201.64616 163.37159 200.27344 164.18359 C 198.46546 165.25307 196.54505 166.17707 194.5332 166.78125 C 192.32329 167.44491 189.3986 167.8861 187.69727 167.875 C 175.96375 167.79829 153.52148 167.875 153.52148 167.875 L 153.52148 123.99219 C 153.52148 123.99219 163.03124 123.78726 171.5293 123.76172 z " />
      </g>
      <g
         id="g33001">
        <path
           id="path17"
           style="fill:#049AD7;"
           d="M 17.421875 368.83008 C 11.487465 368.82033 5.8046875 368.85938 5.8046875 368.85938 L 5.8046875 399.45508 L 14.927734 399.45508 L 14.927734 388.76367 L 19.283203 388.76367 L 25.175781 399.56641 L 35.869141 399.54492 L 28.613281 387.72656 C 28.613281 387.72656 30.986402 386.0991 31.929688 385.03125 C 32.793009 384.05392 33.616033 382.95985 34.003906 381.71484 C 34.456633 380.26166 34.486754 378.64921 34.210938 377.15234 C 33.931821 375.63757 33.313549 374.13083 32.369141 372.91406 C 31.454812 371.73604 30.183698 370.8122 28.837891 370.16992 C 27.108248 369.34446 24.663031 368.87285 23.238281 368.85938 C 21.405037 368.84205 19.400012 368.83333 17.421875 368.83008 z M 14.927734 375.28711 C 14.927734 375.28711 19.268353 375.29611 21.421875 375.28711 C 22.113007 375.28437 22.86288 375.66505 23.429688 376.11523 C 23.895247 376.485 24.272873 377.00439 24.466797 377.56641 C 24.756639 378.40641 24.77199 379.36199 24.583984 380.23047 C 24.454994 380.82634 24.214396 381.46178 23.753906 381.86133 C 23.060554 382.46293 22.074393 382.7009 21.148438 382.75 C 19.685255 382.8276 14.953125 382.75 14.953125 382.75 L 14.927734 375.28711 z " />
        <path
           style="fill:#049AD7;"
           d="m 40.617108,368.91939 0.116049,30.6369 26.691242,-0.11605 0,-7.07898 H 50.017067 L 50.133116,387.02301 63,387 v -6 H 50 v -5 h 17 v -7 z"
           id="path15"
           sodipodi:nodetypes="ccccccccccccc" />
        <path
           style="fill:#049AD7"
           d="m 73.807087,368.80334 -0.116048,30.6369 9.399385,0.0349 -0.04752,-18.25604 12.813467,18.22118 10.096258,0 v -30.52085 h -9.399964 l 0.232098,17.17523 -13.345622,-17.29128 z"
           id="path20"
           sodipodi:nodetypes="ccccccccccc" />
        <path
           id="path25"
           style="fill:#049AD7;stroke-width:1.03412"
           d="M 131.5 367.87109 A 18.914589 16.206642 0 0 0 112.58398 384.07617 A 18.914589 16.206642 0 0 0 131.5 400.2832 A 18.914589 16.206642 0 0 0 150.41406 384.07617 A 18.914589 16.206642 0 0 0 131.5 367.87109 z M 131.74609 375.41992 A 9.2316313 8.57516 0 0 1 140.97656 383.99414 A 9.2316313 8.57516 0 0 1 131.74609 392.57031 A 9.2316313 8.57516 0 0 1 122.51367 383.99414 A 9.2316313 8.57516 0 0 1 131.74609 375.41992 z " />
        <path
           style="fill:#049AD7;"
           d="m 150.57817,368.93704 13.95002,30.60799 7.46737,4e-5 14.03208,-30.52593 -9.84708,-0.0821 -7.7956,19.11973 -7.87765,-19.11974 z"
           id="path33"
           sodipodi:nodetypes="cccccccc" />
        <path
           id="path37"
           style="fill:#049AD7;"
           d="M 196.61328 369.10156 L 182.91016 399.54492 L 191.36133 399.54492 L 194.15234 393.96484 L 206.87109 393.96484 L 210.23438 399.54492 L 218.6875 399.46289 L 204.73633 369.10156 L 196.61328 369.10156 z M 200.55273 378.53711 L 204.57227 387.72852 L 196.94141 387.72852 L 200.55273 378.53711 z " />
        <path
           style="fill:#049AD7;"
           d="m 248.13335,370.91055 c 0,0 -4.13047,-1.94632 -6.35532,-2.30264 -3.03292,-0.48574 -6.22385,-0.44063 -9.21058,0.27632 -2.37709,0.5706 -4.6464,1.70505 -6.63162,3.1316 -1.79859,1.29245 -3.45943,2.89416 -4.6053,4.78951 -1.0046,1.66169 -1.59504,3.60038 -1.84212,5.52636 -0.23492,1.8312 -0.12227,3.74654 0.36842,5.52635 0.46712,1.69432 1.35338,3.2816 2.39475,4.6974 1.11917,1.52159 2.49536,2.89162 4.05266,3.96055 1.6424,1.12735 3.54338,1.85996 5.43425,2.48686 1.25175,0.41501 2.5583,0.67853 3.86845,0.82896 1.73886,0.19965 3.51461,0.31965 5.25004,0.0921 1.55132,-0.20341 3.07907,-0.66397 4.51319,-1.28948 1.25001,-0.54521 3.50002,-2.11844 3.50002,-2.11844 l -4.23687,-5.71056 -2.11844,0.0921 c 0,0 -0.79772,0.77447 -1.28948,1.01317 -0.93786,0.45524 -1.99739,0.70756 -3.03949,0.73684 -1.52896,0.043 -3.11835,-0.20127 -4.5132,-0.82894 -1.63542,-0.73593 -3.28307,-1.79712 -4.23687,-3.31582 -0.91921,-1.46362 -1.22956,-3.34197 -1.10527,-5.06582 0.11319,-1.56983 0.71157,-3.16347 1.65791,-4.42109 0.89717,-1.19228 2.20802,-2.11367 3.59213,-2.67107 1.8086,-0.72836 3.87108,-1.00237 5.80267,-0.73685 1.48572,0.20423 4.14477,1.75001 4.14477,1.75001 l 5.34214,-4.88161 z"
           id="path36"
           sodipodi:nodetypes="caaaaaaaaaaaacccaaaaaaaaccc" />
        <path
           style="fill:#049AD7;"
           d="m 256.33079,369.06843 -0.0921,30.57917 h 8.65795 l -0.0921,-30.57917 z"
           id="path38"
           sodipodi:nodetypes="ccccc" />
        <path
           id="path25-9"
           style="fill:#049AD7;stroke-width:1.03412"
           d="M 290.64648 367.83203 A 18.914589 16.206642 0 0 0 271.73047 384.03906 A 18.914589 16.206642 0 0 0 290.64648 400.24609 A 18.914589 16.206642 0 0 0 309.56055 384.03906 A 18.914589 16.206642 0 0 0 290.64648 367.83203 z M 291.04492 375.80469 A 9.2316313 8.57516 0 0 1 300.27539 384.38086 A 9.2316313 8.57516 0 0 1 291.04492 392.95508 A 9.2316313 8.57516 0 0 1 281.8125 384.38086 A 9.2316313 8.57516 0 0 1 291.04492 375.80469 z " />
        <path
           style="fill:#049AD7"
           d="m 289.74915,359.88091 -2.0357,5.54165 6.89879,0.11309 2.71427,-5.54165 z"
           id="path98"
           sodipodi:nodetypes="ccccc" />
        <path
           style="fill:#049AD7;"
           d="m 315.9083,368.97597 -0.11605,30.6369 9.39938,0.0349 -0.0475,-18.25604 12.81347,18.22118 h 10.09626 v -30.52085 h -9.39997 l 0.2321,17.17523 -13.34562,-17.29128 z"
           id="path20-2"
           sodipodi:nodetypes="ccccccccccc" />
      </g>
      <g
         id="g33010">
        <path
           id="path115"
           style="fill:#049ad7"
           d="M 19.347656 410.39062 C 14.197848 410.38387 5.7636719 410.41211 5.7636719 410.41211 L 5.8808594 440.95703 L 14.703125 440.95703 L 14.921875 429.75977 C 14.921875 429.75977 21.384555 429.78367 23.75 429.75977 C 24.741637 429.74977 26.705328 429.34843 28.046875 428.74219 C 29.057243 428.28561 30.023944 427.64795 30.761719 426.82031 C 31.648609 425.82539 32.268028 424.58084 32.683594 423.31445 C 33.039336 422.23036 33.196754 421.06126 33.136719 419.92188 C 33.069369 418.64357 32.62008 416.91641 32.232422 416.18945 C 31.444702 414.71228 30.802213 413.7174 29.744141 412.79688 C 28.904284 412.06619 27.848476 411.59457 26.802734 411.21289 C 25.575792 410.76508 24.338593 410.44185 22.96875 410.41211 C 22.416042 410.40011 21.064259 410.39288 19.347656 410.39062 z M 17.283203 416.86328 C 18.512708 416.85898 19.899435 416.85975 20.525391 416.87695 C 21.003546 416.89011 21.518592 416.88595 21.939453 417.11328 C 22.551494 417.44388 23.058877 418.01725 23.355469 418.64648 C 23.7277 419.43617 23.872518 420.38462 23.708984 421.24219 C 23.573778 421.95121 23.216576 422.6837 22.648438 423.12891 C 22.070269 423.58198 21.354544 423.74045 20.525391 423.71875 C 19.147012 423.68276 14.980469 423.71875 14.980469 423.71875 L 14.980469 416.87695 C 14.980469 416.87695 16.053698 416.86758 17.283203 416.86328 z " />
        <path
           id="path25-4"
           style="fill:#049ad7;stroke-width:1.03412"
           d="M 73.164062 409.63281 A 18.914589 16.206642 0 0 0 54.248047 425.83984 A 18.914589 16.206642 0 0 0 73.164062 442.04492 A 18.914589 16.206642 0 0 0 92.078125 425.83984 A 18.914589 16.206642 0 0 0 73.164062 409.63281 z M 73.359375 417.33398 A 9.2316313 8.57516 0 0 1 82.589844 425.91016 A 9.2316313 8.57516 0 0 1 73.359375 434.48438 A 9.2316313 8.57516 0 0 1 64.126953 425.91016 A 9.2316313 8.57516 0 0 1 73.359375 417.33398 z " />
        <path
           id="path115-4"
           style="fill:#049ad7"
           d="M 128.83984 410.50391 C 123.69004 410.49716 115.25586 410.52344 115.25586 410.52344 L 115.37305 441.07031 L 124.19531 441.07031 L 124.19531 429.87305 C 124.19531 429.87305 130.87675 429.89695 133.24219 429.87305 C 134.23383 429.86305 136.19947 429.46171 137.54102 428.85547 C 138.55138 428.39889 139.51614 427.76123 140.25391 426.93359 C 141.1408 425.93867 141.76216 424.69412 142.17773 423.42773 C 142.53347 422.34364 142.68894 421.17258 142.62891 420.0332 C 142.56151 418.7549 142.11227 417.02969 141.72461 416.30273 C 140.93689 414.82556 140.2944 413.82873 139.23633 412.9082 C 138.39647 412.17752 137.34261 411.70785 136.29688 411.32617 C 135.06993 410.87836 133.83078 410.55318 132.46094 410.52344 C 131.90823 410.51144 130.55645 410.50616 128.83984 410.50391 z M 126.45703 416.95508 C 127.68654 416.95078 129.07326 416.95155 129.69922 416.96875 C 130.17737 416.98191 130.69437 416.97775 131.11523 417.20508 C 131.72727 417.53568 132.23271 418.10905 132.5293 418.73828 C 132.90157 419.52797 133.04635 420.47641 132.88281 421.33398 C 132.74761 422.043 132.39041 422.77549 131.82227 423.2207 C 131.2441 423.67377 130.52837 423.83225 129.69922 423.81055 C 128.32084 423.77456 124.1543 423.81055 124.1543 423.81055 L 124.1543 416.96875 C 124.1543 416.96875 125.22753 416.95938 126.45703 416.95508 z " />
        <path
           style="fill:#049ad7"
           d="m 166.20132,410.49012 c 0,0 -0.077,20.0461 0,21.58611 0.0605,1.21082 1.13154,3.44859 2.24118,4.83625 1.20823,1.51096 2.85169,2.71099 4.60032,3.5387 1.56895,0.74265 3.34763,0.98169 5.07215,1.17958 1.99219,0.2286 4.02804,0.2644 6.0158,-1e-5 1.93823,-0.25783 3.89704,-0.69179 5.66193,-1.53344 1.57601,-0.75158 3.15361,-1.70513 4.24646,-3.06688 1.36689,-1.70322 2.56096,-4.30723 2.59505,-6.0158 0.0363,-1.81961 0,-20.52451 0,-20.52451 l -8.84677,1e-5 c 0,0 0.0702,16.19058 -0.23592,17.92945 -0.16472,0.9358 -0.32691,2.69364 -1.06161,3.77462 -0.58351,0.85853 -1.49731,1.54442 -2.47709,1.88731 -1.67045,0.58461 -3.6396,0.70819 -5.30807,0.11796 -1.26249,-0.44662 -2.40044,-1.43351 -3.06688,-2.59506 -0.79459,-1.3849 -0.89104,-3.39816 -0.8257,-4.71827 0.0915,-1.84788 0.11796,-16.39602 0.11796,-16.39602 z"
           id="path92"
           sodipodi:nodetypes="csaaaaaasccsaaaascc" />
        <path
           style="fill:#049ad7"
           d="m 220.10764,410.37216 -0.11796,30.66881 h 23.8273 v -6.8415 h -14.74462 l 0.11796,-23.70935 h -9.08268 z"
           id="path96"
           sodipodi:nodetypes="cccccccc" />
        <path
           id="path37-2"
           style="fill:#049ad7"
           d="M 276.94141 410.46484 L 263.23633 440.91016 L 271.68945 440.91016 L 274.47852 435.33008 L 287.19727 435.33008 L 290.5625 440.91016 L 299.01367 440.82812 L 285.06445 410.46484 L 276.94141 410.46484 z M 281.07031 420.50586 L 285.08984 429.69727 L 277.45898 429.69727 L 281.07031 420.50586 z " />
        <path
           id="path17-6"
           style="fill:#049ad7"
           d="M 333.05664 410.52539 C 327.12223 410.51565 321.44141 410.55469 321.44141 410.55469 L 321.44141 441.26758 L 330.56445 441.26758 L 330.56445 430.45898 L 334.91797 430.45898 L 341.2832 441.26172 L 351.50586 441.24023 L 344.24805 429.42188 C 344.24805 429.42188 346.62313 427.79441 347.56641 426.72656 C 348.42973 425.74923 349.2508 424.65517 349.63867 423.41016 C 350.0914 421.95698 350.12348 420.34453 349.84766 418.84766 C 349.56854 417.33289 348.95027 415.82615 348.00586 414.60938 C 347.09153 413.43135 345.81847 412.50751 344.47266 411.86523 C 342.74302 411.03977 340.29975 410.56816 338.875 410.55469 C 337.04176 410.53736 335.03478 410.52864 333.05664 410.52539 z M 330.22461 416.86523 L 330.22656 416.86523 C 330.22656 416.86523 334.80962 416.87423 337.08398 416.86523 C 337.81389 416.86241 338.60451 417.25492 339.20312 417.7168 C 339.6948 418.09618 340.09403 418.62845 340.29883 419.20508 C 340.60493 420.06691 340.62237 421.04645 340.42383 421.9375 C 340.2876 422.54886 340.03321 423.19945 339.54688 423.60938 C 338.81461 424.22662 337.77283 424.47304 336.79492 424.52344 C 335.24964 424.60304 330.25195 424.52344 330.25195 424.52344 L 330.22461 416.86523 z " />
      </g>
    </g>
  </g>
</svg>
